{
  "asset": {
    "version": "2.0",
    "generator": "THREE.GLTFExporter"
  },
  "scenes": [
    {
      "name": "Scene",
      "nodes": [
        0,
        25
      ]
    }
  ],
  "scene": 0,
  "nodes": [
    {
      "matrix": [
        1,
        0,
        0,
        0,
        0,
        1,
        0,
        0,
        0,
        0,
        1,
        0,
        -3.8692482486383355,
        2.8225078107550376,
        -2.630118165053207,
        1
      ],
      "name": "PointLight",
      "extensions": {
        "KHR_lights_punctual": {
          "light": 0
        }
      }
    },
    {
      "matrix": [
        0.41041876890801043,
        0,
        0,
        0,
        0,
        0.3931489928015342,
        0,
        0,
        0,
        0,
        0.39979318535102903,
        0,
        0,
        0.018561281749960842,
        0.182,
        1
      ],
      "name": "shoulder",
      "mesh": 0
    },
    {
      "matrix": [
        0.12899617142561096,
        0,
        0.21018587010492087,
        0,
        0,
        0.24993229224339022,
        0,
        0,
        -0.7507779563688834,
        0,
        0.4607706593882162,
        0,
        -0.363,
        0.017,
        0.49,
        1
      ],
      "name": "arm",
      "mesh": 1
    },
    {
      "matrix": [
        0.3096895573915525,
        0,
        0,
        0,
        0,
        0.25391454285494863,
        0,
        0,
        0,
        0,
        0.3206678581234708,
        0,
        -0.773,
        0.017,
        0.733,
        1
      ],
      "name": "elbow",
      "mesh": 2
    },
    {
      "matrix": [
        0.7480361482501765,
        0,
        0.38135159909644795,
        0,
        0,
        0.25421435676855714,
        0,
        0,
        -0.12509583204152347,
        0,
        0.24538039065315628,
        0,
        -1.22855877275444,
        0.017,
        0.5283818207409368,
        1
      ],
      "name": "forearm",
      "mesh": 3
    },
    {
      "matrix": [
        0.48783964908412525,
        0.8071684564687406,
        -0.3324027070638093,
        0,
        -0.21861413574518684,
        -0.2556851630900159,
        -0.941718087873445,
        0,
        -0.8451155757846749,
        0.53207535204847,
        0.05172507427383943,
        0,
        -0.40285386705032,
        -0.9895618378158904,
        0.5487553071140061,
        1
      ],
      "name": "fullleg",
      "children": [
        1,
        2,
        3,
        4
      ]
    },
    {
      "matrix": [
        0.41041876890801043,
        0,
        0,
        0,
        0,
        0.3931489928015342,
        0,
        0,
        0,
        0,
        0.39979318535102903,
        0,
        0,
        0.018561281749960842,
        0.182,
        1
      ],
      "name": "shoulder",
      "mesh": 0
    },
    {
      "matrix": [
        0.08774051441542714,
        0,
        0.2304771449934776,
        0,
        0,
        0.24993229224339022,
        0,
        0,
        -0.8232578137700742,
        0,
        0.31340662467313357,
        0,
        -0.39312166860322384,
        0.017,
        0.36283862734074135,
        1
      ],
      "name": "arm",
      "mesh": 1
    },
    {
      "matrix": [
        0.30534846328991166,
        0,
        -0.051671442053277124,
        0,
        0,
        0.25391454285494863,
        0,
        0,
        0.05350316229237951,
        0,
        0.3161728749564227,
        0,
        -0.8138212329008855,
        0.017,
        0.49177002381638724,
        1
      ],
      "name": "elbow",
      "mesh": 2
    },
    {
      "matrix": [
        0.8230650520420328,
        0,
        0.1659850635732744,
        0,
        0,
        0.25421435676855714,
        0,
        0,
        -0.05444854481628247,
        0,
        0.26999233188860366,
        0,
        -1.3117537495938192,
        0.017,
        0.43042317350028664,
        1
      ],
      "name": "forearm",
      "mesh": 3
    },
    {
      "matrix": [
        -0.18179518296838149,
        0.9761302800062901,
        0.11882839687690122,
        0,
        -0.07294059442236395,
        0.10712301759323628,
        -0.9915666033035964,
        0,
        -0.9806274425768458,
        -0.1889294459753717,
        0.051725074273839766,
        0,
        -0.29467971881498883,
        -0.9206885794359227,
        -0.44967379866348606,
        1
      ],
      "name": "fullleg",
      "children": [
        6,
        7,
        8,
        9
      ]
    },
    {
      "matrix": [
        0.41041876890801043,
        0,
        0,
        0,
        0,
        0.3931489928015342,
        0,
        0,
        0,
        0,
        0.39979318535102903,
        0,
        0,
        0.018561281749960842,
        0.182,
        1
      ],
      "name": "shoulder",
      "mesh": 0
    },
    {
      "matrix": [
        0.04818697372739928,
        -0.00005528135497990119,
        0.2418597212046582,
        0,
        0.00015112881585259977,
        0.2499322450910174,
        0.000027016292131292518,
        0,
        -0.8639159109608431,
        0.0005037864340123268,
        0.17212258803078154,
        0,
        -0.4953758325089641,
        0.017255694042918514,
        0.3434982536980984,
        1
      ],
      "name": "arm",
      "mesh": 1
    },
    {
      "matrix": [
        0.3096895573915525,
        0,
        0,
        0,
        0,
        0.25391454285494863,
        0,
        0,
        0,
        0,
        0.3206678581234708,
        0,
        -1.0048280112408863,
        0.017556218163848367,
        0.41431079082436034,
        1
      ],
      "name": "elbow",
      "mesh": 2
    },
    {
      "matrix": [
        0.6726251205109608,
        0.034727879230733505,
        0.07165817381563823,
        0,
        -0.013801069452993824,
        0.2537544917527864,
        0.0065671595450355405,
        0,
        -0.028721717736368856,
        -0.00864777146410225,
        0.273789667975681,
        0,
        -1.445805672232944,
        -0.0048405374357743634,
        0.37093482849185405,
        1
      ],
      "name": "forearm",
      "mesh": 3
    },
    {
      "matrix": [
        0.3178213649008158,
        -0.9481504408309434,
        0.0005670667244919642,
        0,
        -0.9481495990948057,
        -0.3178200955413677,
        0.0016506381901501468,
        0,
        -0.0013848281270868858,
        -0.0010622721700379923,
        -0.9999984769132872,
        0,
        -0.22545408282721702,
        0.4129638886982285,
        -0.5493439478739569,
        1
      ],
      "name": "fullarm",
      "children": [
        11,
        12,
        13,
        14
      ]
    },
    {
      "matrix": [
        0.41041876890801043,
        0,
        0,
        0,
        0,
        0.3931489928015342,
        0,
        0,
        0,
        0,
        0.39979318535102903,
        0,
        0,
        0.018561281749960842,
        0.182,
        1
      ],
      "name": "shoulder",
      "mesh": 0
    },
    {
      "matrix": [
        0.048423826794539826,
        0,
        0.24181241744956083,
        0,
        0,
        0.24993229224339022,
        0,
        0,
        -0.8637470849338041,
        0,
        0.1729685335280501,
        0,
        -0.4819138527449238,
        0.017,
        0.3390708626351751,
        1
      ],
      "name": "arm",
      "mesh": 1
    },
    {
      "matrix": [
        0.3028071680858899,
        0,
        -0.06492642692447571,
        0,
        0,
        0.25391454285494863,
        0,
        0,
        0.06722802807056995,
        0,
        0.31354149243000845,
        0,
        -0.9537884186121998,
        0.017,
        0.4533672341142151,
        1
      ],
      "name": "elbow",
      "mesh": 2
    },
    {
      "matrix": [
        0.6744972957142249,
        0.02268306744909808,
        0.05748346491068929,
        0,
        -0.008482717836557118,
        0.2540717616225065,
        -0.0007229324953611161,
        0,
        -0.023388324492443543,
        0,
        0.274433032976522,
        0,
        -1.3520374540659605,
        -0.000034499121706570504,
        0.44787011493456175,
        1
      ],
      "name": "forearm",
      "mesh": 3
    },
    {
      "matrix": [
        -0.00911259971689593,
        0.9999584794012197,
        1.4675097395442319e-16,
        0,
        -0.9999584794012197,
        -0.00911259971689593,
        5.3637829232862793e-17,
        0,
        5.4972885041787054e-17,
        -1.4625610069863072e-16,
        1,
        0,
        -0.2543053024747395,
        0.3775941398803365,
        0.6064073141313949,
        1
      ],
      "name": "fullarm",
      "children": [
        16,
        17,
        18,
        19
      ]
    },
    {
      "matrix": [
        0.3422952255160945,
        -0.022568669788124867,
        0,
        0,
        0.03522535998141128,
        0.5342571206862692,
        0,
        0,
        0,
        0,
        0.25117724311704465,
        0,
        -0.22900756373668496,
        0.7469472113684563,
        0,
        1
      ],
      "name": "neck",
      "mesh": 4
    },
    {
      "matrix": [
        0.5811375702384658,
        -0.0383163449166149,
        0,
        0,
        0.08883955035567669,
        1.3474145445535077,
        0,
        0,
        0,
        0,
        1.2468813535966432,
        0,
        -0.2788070995092801,
        -0.16953153738658092,
        0,
        1
      ],
      "name": "torso",
      "mesh": 4
    },
    {
      "matrix": [
        0.7480806849749525,
        0.13485319868956513,
        0,
        0,
        -0.138518216838576,
        0.7684118993176631,
        0,
        0,
        0,
        0,
        0.8018401005728234,
        0,
        -0.4283133400293217,
        1.2930717674086594,
        0,
        1
      ],
      "name": "skull",
      "mesh": 4
    },
    {
      "matrix": [
        0.79204746272226,
        -0.6104595128222919,
        4.617473898299363e-17,
        0,
        0.6104595128222919,
        0.79204746272226,
        -1.355492413473529e-16,
        0,
        4.617473898299358e-17,
        1.355492413473529e-16,
        1,
        0,
        -0.5234384165488508,
        -0.19523545676872828,
        1.1102230246251565e-16,
        1
      ],
      "name": "head",
      "children": [
        23
      ]
    },
    {
      "matrix": [
        1.490116141589226e-8,
        -0.3225347844173215,
        0.9465576120030262,
        0,
        0,
        0.9465576120030265,
        0.32253478441732153,
        0,
        -0.9999999999999999,
        -4.806142900326549e-9,
        1.4104807766202043e-8,
        0,
        0,
        0,
        0,
        1
      ],
      "name": "robot",
      "children": [
        5,
        10,
        15,
        20,
        21,
        22,
        24
      ]
    }
  ],
  "extensions": {
    "KHR_lights_punctual": {
      "lights": [
        {
          "name": "PointLight",
          "color": [
            1,
            1,
            1
          ],
          "intensity": 1,
          "type": "point"
        }
      ]
    }
  },
  "bufferViews": [
    {
      "buffer": 0,
      "byteOffset": 0,
      "byteLength": 288,
      "target": 34962,
      "byteStride": 12
    },
    {
      "buffer": 0,
      "byteOffset": 288,
      "byteLength": 288,
      "target": 34962,
      "byteStride": 12
    },
    {
      "buffer": 0,
      "byteOffset": 576,
      "byteLength": 192,
      "target": 34962,
      "byteStride": 8
    },
    {
      "buffer": 0,
      "byteOffset": 768,
      "byteLength": 72,
      "target": 34963
    },
    {
      "buffer": 0,
      "byteOffset": 840,
      "byteLength": 288,
      "target": 34962,
      "byteStride": 12
    },
    {
      "buffer": 0,
      "byteOffset": 1128,
      "byteLength": 288,
      "target": 34962,
      "byteStride": 12
    },
    {
      "buffer": 0,
      "byteOffset": 1416,
      "byteLength": 192,
      "target": 34962,
      "byteStride": 8
    },
    {
      "buffer": 0,
      "byteOffset": 1608,
      "byteLength": 72,
      "target": 34963
    },
    {
      "buffer": 0,
      "byteOffset": 1680,
      "byteLength": 288,
      "target": 34962,
      "byteStride": 12
    },
    {
      "buffer": 0,
      "byteOffset": 1968,
      "byteLength": 288,
      "target": 34962,
      "byteStride": 12
    },
    {
      "buffer": 0,
      "byteOffset": 2256,
      "byteLength": 192,
      "target": 34962,
      "byteStride": 8
    },
    {
      "buffer": 0,
      "byteOffset": 2448,
      "byteLength": 72,
      "target": 34963
    },
    {
      "buffer": 0,
      "byteOffset": 2520,
      "byteLength": 288,
      "target": 34962,
      "byteStride": 12
    },
    {
      "buffer": 0,
      "byteOffset": 2808,
      "byteLength": 288,
      "target": 34962,
      "byteStride": 12
    },
    {
      "buffer": 0,
      "byteOffset": 3096,
      "byteLength": 192,
      "target": 34962,
      "byteStride": 8
    },
    {
      "buffer": 0,
      "byteOffset": 3288,
      "byteLength": 72,
      "target": 34963
    },
    {
      "buffer": 0,
      "byteOffset": 3360,
      "byteLength": 288,
      "target": 34962,
      "byteStride": 12
    },
    {
      "buffer": 0,
      "byteOffset": 3648,
      "byteLength": 288,
      "target": 34962,
      "byteStride": 12
    },
    {
      "buffer": 0,
      "byteOffset": 3936,
      "byteLength": 192,
      "target": 34962,
      "byteStride": 8
    },
    {
      "buffer": 0,
      "byteOffset": 4128,
      "byteLength": 72,
      "target": 34963
    }
  ],
  "buffers": [
    {
      "byteLength": 4200,
      "uri": "data:application/octet-stream;base64,"
    }
  ],
  "accessors": [
    {
      "bufferView": 0,
      "componentType": 5126,
      "count": 24,
      "max": [
        0.5,
        0.5,
        0.5
      ],
      "min": [
        -0.5,
        -0.5,
        -0.5
      ],
      "type": "VEC3"
    },
    {
      "bufferView": 1,
      "componentType": 5126,
      "count": 24,
      "max": [
        1,
        1,
        1
      ],
      "min": [
        -1,
        -1,
        -1
      ],
      "type": "VEC3"
    },
    {
      "bufferView": 2,
      "componentType": 5126,
      "count": 24,
      "max": [
        1,
        1
      ],
      "min": [
        0,
        0
      ],
      "type": "VEC2"
    },
    {
      "bufferView": 3,
      "componentType": 5123,
      "count": 36,
      "max": [
        23
      ],
      "min": [
        0
      ],
      "type": "SCALAR"
    },
    {
      "bufferView": 4,
      "componentType": 5126,
      "count": 24,
      "max": [
        0.5,
        0.5,
        0.5
      ],
      "min": [
        -0.5,
        -0.5,
        -0.5
      ],
      "type": "VEC3"
    },
    {
      "bufferView": 5,
      "componentType": 5126,
      "count": 24,
      "max": [
        1,
        1,
        1
      ],
      "min": [
        -1,
        -1,
        -1
      ],
      "type": "VEC3"
    },
    {
      "bufferView": 6,
      "componentType": 5126,
      "count": 24,
      "max": [
        1,
        1
      ],
      "min": [
        0,
        0
      ],
      "type": "VEC2"
    },
    {
      "bufferView": 7,
      "componentType": 5123,
      "count": 36,
      "max": [
        23
      ],
      "min": [
        0
      ],
      "type": "SCALAR"
    },
    {
      "bufferView": 8,
      "componentType": 5126,
      "count": 24,
      "max": [
        0.5,
        0.5,
        0.5
      ],
      "min": [
        -0.5,
        -0.5,
        -0.5
      ],
      "type": "VEC3"
    },
    {
      "bufferView": 9,
      "componentType": 5126,
      "count": 24,
      "max": [
        1,
        1,
        1
      ],
      "min": [
        -1,
        -1,
        -1
      ],
      "type": "VEC3"
    },
    {
      "bufferView": 10,
      "componentType": 5126,
      "count": 24,
      "max": [
        1,
        1
      ],
      "min": [
        0,
        0
      ],
      "type": "VEC2"
    },
    {
      "bufferView": 11,
      "componentType": 5123,
      "count": 36,
      "max": [
        23
      ],
      "min": [
        0
      ],
      "type": "SCALAR"
    },
    {
      "bufferView": 12,
      "componentType": 5126,
      "count": 24,
      "max": [
        0.5,
        0.5,
        0.5
      ],
      "min": [
        -0.5,
        -0.5,
        -0.5
      ],
      "type": "VEC3"
    },
    {
      "bufferView": 13,
      "componentType": 5126,
      "count": 24,
      "max": [
        1,
        1,
        1
      ],
      "min": [
        -1,
        -1,
        -1
      ],
      "type": "VEC3"
    },
    {
      "bufferView": 14,
      "componentType": 5126,
      "count": 24,
      "max": [
        1,
        1
      ],
      "min": [
        0,
        0
      ],
      "type": "VEC2"
    },
    {
      "bufferView": 15,
      "componentType": 5123,
      "count": 36,
      "max": [
        23
      ],
      "min": [
        0
      ],
      "type": "SCALAR"
    },
    {
      "bufferView": 16,
      "componentType": 5126,
      "count": 24,
      "max": [
        0.5,
        0.5,
        0.5
      ],
      "min": [
        -0.5,
        -0.5,
        -0.5
      ],
      "type": "VEC3"
    },
    {
      "bufferView": 17,
      "componentType": 5126,
      "count": 24,
      "max": [
        1,
        1,
        1
      ],
      "min": [
        -1,
        -1,
        -1
      ],
      "type": "VEC3"
    },
    {
      "bufferView": 18,
      "componentType": 5126,
      "count": 24,
      "max": [
        1,
        1
      ],
      "min": [
        0,
        0
      ],
      "type": "VEC2"
    },
    {
      "bufferView": 19,
      "componentType": 5123,
      "count": 36,
      "max": [
        23
      ],
      "min": [
        0
      ],
      "type": "SCALAR"
    }
  ],
  "materials": [
    {
      "pbrMetallicRoughness": {
        "baseColorFactor": [
          0.9215686274509803,
          0,
          0,
          1
        ],
        "metallicFactor": 0,
        "roughnessFactor": 1
      }
    },
    {
      "pbrMetallicRoughness": {
        "metallicFactor": 0,
        "roughnessFactor": 1
      }
    },
    {
      "pbrMetallicRoughness": {
        "baseColorFactor": [
          0.2784313725490196,
          0,
          0,
          1
        ],
        "metallicFactor": 0,
        "roughnessFactor": 1
      }
    },
    {
      "pbrMetallicRoughness": {
        "metallicFactor": 0,
        "roughnessFactor": 1
      }
    },
    {
      "pbrMetallicRoughness": {
        "baseColorFactor": [
          0.7607843137254902,
          0.7607843137254902,
          0.7607843137254902,
          1
        ],
        "metallicFactor": 0,
        "roughnessFactor": 1
      }
    }
  ],
  "meshes": [
    {
      "primitives": [
        {
          "mode": 4,
          "attributes": {
            "POSITION": 0,
            "NORMAL": 1,
            "TEXCOORD_0": 2
          },
          "indices": 3,
          "material": 0
        }
      ]
    },
    {
      "primitives": [
        {
          "mode": 4,
          "attributes": {
            "POSITION": 4,
            "NORMAL": 5,
            "TEXCOORD_0": 6
          },
          "indices": 7,
          "material": 1
        }
      ]
    },
    {
      "primitives": [
        {
          "mode": 4,
          "attributes": {
            "POSITION": 8,
            "NORMAL": 9,
            "TEXCOORD_0": 10
          },
          "indices": 11,
          "material": 2
        }
      ]
    },
    {
      "primitives": [
        {
          "mode": 4,
          "attributes": {
            "POSITION": 12,
            "NORMAL": 13,
            "TEXCOORD_0": 14
          },
          "indices": 15,
          "material": 3
        }
      ]
    },
    {
      "primitives": [
        {
          "mode": 4,
          "attributes": {
            "POSITION": 16,
            "NORMAL": 17,
            "TEXCOORD_0": 18
          },
          "indices": 19,
          "material": 4
        }
      ]
    }
  ],
  "extensionsUsed": [
    "KHR_lights_punctual"
  ]
}